<svg xmlns="http://www.w3.org/2000/svg" viewBox="0 0 64 64" fill="none">
  <defs>
    <linearGradient id="sky" x1="32" x2="32" y1="4" y2="60" gradientUnits="userSpaceOnUse">
      <stop stop-color="#2f2842" />
      <stop offset="1" stop-color="#120f1b" />
    </linearGradient>
    <linearGradient id="cap" x1="15" x2="49" y1="16" y2="36" gradientUnits="userSpaceOnUse">
      <stop stop-color="#ff7767" />
      <stop offset="1" stop-color="#cb3e31" />
    </linearGradient>
    <linearGradient id="stem" x1="32" x2="32" y1="28" y2="55" gradientUnits="userSpaceOnUse">
      <stop stop-color="#fff5e2" />
      <stop offset="1" stop-color="#e5cfad" />
    </linearGradient>
  </defs>
  <rect width="64" height="64" rx="14" fill="url(#sky)" />
  <ellipse cx="32" cy="50" rx="18" ry="6" fill="#000" opacity=".22" />
  <path
    fill="url(#cap)"
    d="M14 33c0-11.6 8.2-19 18-19s18 7.4 18 19c0 1.9-1.5 3.5-3.4 3.5H17.4A3.4 3.4 0 0 1 14 33Z"
  />
  <path
    fill="#ffd8cf"
    opacity=".4"
    d="M22 18.5c2.7-1.6 6.1-2.5 10-2.5 7.8 0 14.6 4.7 17 12-2.5-4.5-8.6-8.2-16.4-8.2-5.1 0-8.7 1.1-10.6 2.3Z"
  />
  <ellipse cx="24" cy="27" rx="4.5" ry="3.4" fill="#fff7ef" />
  <ellipse cx="39" cy="24.5" rx="5.2" ry="4" fill="#fff7ef" />
  <ellipse cx="32" cy="30.5" rx="4.2" ry="3.1" fill="#fff7ef" />
  <path
    fill="url(#stem)"
    d="M24.5 37.5c0-2.5 2-4.5 4.5-4.5h6c2.5 0 4.5 2 4.5 4.5V49c0 5-3.3 8-7.5 8s-7.5-3-7.5-8V37.5Z"
  />
  <path
    fill="#2c241a"
    d="M28 43a1.9 1.9 0 1 1 0-3.8A1.9 1.9 0 0 1 28 43Zm8 0a1.9 1.9 0 1 1 0-3.8A1.9 1.9 0 0 1 36 43Z"
  />
  <path
    stroke="#6f4a36"
    stroke-linecap="round"
    stroke-width="2.5"
    d="M27.5 48.5c1.5 1.7 3 2.5 4.5 2.5s3-.8 4.5-2.5"
  />
</svg>